<?xml version="1.0" standalone="no"?>
<!DOCTYPE svg PUBLIC "-//W3C//DTD SVG 20010904//EN"
 "http://www.w3.org/TR/2001/REC-SVG-20010904/DTD/svg10.dtd">
<svg version="1.0" xmlns="http://www.w3.org/2000/svg"
 width="1000.000000pt" height="750.000000pt" viewBox="0 0 1000.000000 750.000000"
 preserveAspectRatio="xMidYMid meet">

<g transform="translate(0.000000,750.000000) scale(0.100000,-0.100000)"
fill="#000000" stroke="none">
<path d="M0 3750 l0 -3750 5000 0 5000 0 0 3750 0 3750 -5000 0 -5000 0 0
-3750z m1717 978 c46 -27 77 -97 69 -155 -6 -45 -4 -49 234 -457 l239 -411 53
-25 c69 -32 101 -83 95 -152 -10 -115 -128 -181 -231 -128 -22 10 -44 16 -50
13 -6 -4 -117 -102 -246 -217 l-235 -210 3 -57 c10 -160 -145 -241 -262 -138
-56 48 -65 118 -26 200 13 28 18 16 -294 674 -87 183 -80 172 -115 180 -39 8
-89 59 -102 105 -16 51 -4 104 31 144 40 45 79 60 143 53 l52 -5 202 195 202
195 -6 43 c-4 33 0 54 16 88 43 89 141 117 228 65z m954 -325 c12 -13 15 -127
17 -629 1 -338 -1 -628 -6 -646 -11 -43 -38 -59 -58 -34 -12 17 -14 117 -14
654 0 417 4 640 10 653 13 23 33 24 51 2z m2785 -42 c23 -10 53 -32 68 -47
l26 -29 0 43 0 42 40 0 40 0 0 -135 0 -135 -40 0 c-34 0 -40 3 -40 20 0 30
-27 91 -53 118 -38 41 -97 65 -158 65 -67 -1 -107 -20 -148 -70 -76 -92 -98
-299 -51 -465 15 -52 69 -120 112 -141 46 -22 135 -24 175 -4 66 35 119 123
130 217 l6 49 -89 3 -89 3 -3 38 -3 37 140 0 141 0 0 -40 c0 -59 -28 -188 -51
-232 -28 -55 -86 -116 -133 -140 -52 -27 -160 -35 -221 -18 -97 27 -166 105
-206 230 -30 92 -30 277 0 370 37 118 101 195 188 226 57 20 170 17 219 -5z
m-2042 -399 c75 -224 136 -411 136 -415 0 -4 -21 -7 -47 -5 l-46 3 -40 118
-39 117 -161 -2 -160 -3 -40 -117 -39 -118 -44 0 c-24 0 -44 4 -44 8 0 10 207
639 247 750 l26 72 58 0 57 0 136 -408z m686 368 l0 -40 -65 0 -65 0 0 -335 0
-335 65 0 65 0 0 -40 0 -40 -177 2 -178 3 0 35 0 35 68 3 67 3 0 334 0 334
-67 3 c-62 3 -68 5 -71 26 -8 51 -5 52 183 52 l175 0 0 -40z m688 11 c91 -41
132 -107 132 -215 0 -99 -67 -183 -170 -213 -30 -8 -57 -17 -58 -18 -2 -2 51
-82 117 -177 l121 -173 -46 -3 c-26 -2 -52 -1 -58 1 -7 3 -63 82 -126 175
l-115 171 -67 1 -68 0 0 -176 0 -175 -42 3 -43 3 -3 400 c-1 220 0 406 3 413
4 11 41 13 188 10 165 -3 187 -6 235 -27z m1446 -381 c75 -226 136 -413 136
-416 0 -3 -21 -4 -47 -2 l-46 3 -40 118 -39 117 -161 -2 -160 -3 -40 -117 -39
-118 -44 0 c-25 0 -44 5 -44 11 0 11 259 797 267 812 2 4 30 7 63 7 l58 0 136
-410z m621 395 c109 -29 154 -73 175 -173 23 -107 -21 -207 -112 -253 -43 -22
-163 -39 -275 -39 l-73 0 -2 -172 -3 -173 -42 -3 -43 -3 0 415 0 416 158 0
c110 0 176 -5 217 -15z m760 -20 c79 -40 115 -90 122 -173 8 -84 -11 -146 -58
-193 -51 -51 -114 -68 -276 -76 l-133 -6 0 -174 0 -174 -42 3 -43 3 -3 413 -2
414 187 -4 c186 -3 189 -3 248 -33z m800 -5 l0 -35 -217 -3 -218 -2 0 -145 0
-145 160 0 160 0 0 -40 0 -40 -160 0 -160 0 0 -150 0 -150 218 -2 217 -3 0
-35 0 -35 -262 -3 -263 -2 0 415 0 415 263 -2 262 -3 0 -35z m610 5 c77 -39
114 -89 122 -168 13 -123 -50 -220 -164 -253 -32 -9 -60 -18 -62 -20 -2 -1 47
-75 108 -163 61 -88 114 -168 118 -176 5 -14 -3 -16 -48 -13 l-53 3 -116 170
-117 170 -66 3 -67 3 0 -176 0 -175 -45 0 -45 0 0 416 0 416 188 -4 c185 -3
188 -3 247 -33z m-5802 -1238 c8 -5 5 -7 -8 -5 -18 3 -20 12 -23 87 -2 47 1
91 5 100 5 9 9 -23 11 -79 2 -59 7 -97 15 -103z m3329 6 c8 -10 6 -13 -6 -13
-14 0 -16 14 -14 103 l2 102 3 -89 c2 -50 9 -96 15 -103z m-3249 167 c-14 -6
-23 -18 -23 -30 0 -12 9 -24 23 -30 l22 -9 -22 0 c-21 -1 -23 -6 -25 -58 l-2
-58 -3 58 c-3 34 -9 57 -15 57 -9 0 -9 3 0 12 7 7 12 22 12 33 0 27 8 35 34
34 20 0 20 -1 -1 -9z m1265 3 c-27 -7 -23 -52 5 -63 l22 -9 -22 0 c-21 -1 -23
-6 -23 -56 0 -30 -3 -55 -7 -55 -5 0 -6 22 -5 50 3 38 0 51 -12 56 -14 5 -14
8 -1 21 8 8 15 25 15 39 0 19 5 24 23 23 16 -1 18 -2 5 -6z m-1558 -12 c0 -5
-17 -7 -38 -4 -27 4 -42 1 -51 -11 -17 -21 -7 -34 45 -56 47 -21 67 -58 44
-85 -14 -17 -120 -21 -120 -5 0 6 18 7 43 4 32 -5 46 -2 56 10 20 24 7 42 -44
65 -51 22 -62 40 -45 70 9 17 20 21 60 21 28 0 50 -4 50 -9z m520 -1 c0 -6
-11 -8 -25 -4 -39 10 -75 -3 -75 -27 0 -15 13 -26 50 -41 53 -22 68 -45 50
-78 -9 -16 -21 -20 -65 -20 -31 0 -55 5 -55 10 0 6 15 8 40 4 42 -7 70 6 70
33 0 8 -23 24 -50 36 -54 23 -73 54 -50 82 14 17 110 21 110 5z m420 0 c0 -5
-4 -10 -10 -10 -5 0 -10 5 -10 10 0 6 5 10 10 10 6 0 10 -4 10 -10z m2076 -15
c10 -15 13 -32 8 -47 -9 -30 -22 -38 -61 -38 -31 0 -33 -2 -33 -35 0 -19 -4
-35 -10 -35 -6 0 -10 37 -10 90 l0 90 45 0 c36 0 48 -5 61 -25z m-1030 -36
c17 -7 17 -8 -3 -8 -20 -1 -23 -6 -23 -46 0 -38 4 -47 23 -55 21 -8 21 -9 -5
-9 -27 -1 -28 1 -28 54 0 46 -3 55 -17 55 -17 1 -17 1 0 11 9 5 17 18 18 27 0
14 2 14 8 -2 4 -11 16 -23 27 -27z m424 21 c0 -14 7 -20 23 -21 l22 -2 -22 -4
c-20 -4 -23 -11 -23 -53 0 -38 4 -50 18 -54 10 -3 6 -4 -8 -3 -23 2 -25 7 -28
52 -2 27 -9 53 -15 57 -9 6 -9 8 1 8 6 0 12 9 12 20 0 11 5 20 10 20 6 0 10
-9 10 -20z m910 0 c0 -14 7 -20 23 -21 l22 -2 -22 -4 c-20 -4 -23 -11 -23 -53
0 -38 4 -50 18 -53 13 -4 12 -5 -4 -6 -26 -1 -34 16 -34 70 0 24 -5 39 -12 40
-10 0 -10 2 0 6 6 2 12 13 12 24 0 10 5 19 10 19 6 0 10 -9 10 -20z m-3192
-26 c12 -8 22 -22 22 -30 0 -21 -17 -17 -23 7 -9 33 -58 22 -69 -16 -9 -37 11
-62 56 -68 30 -4 30 -4 -6 -5 -48 -3 -70 19 -66 67 2 26 9 39 28 48 32 16 31
16 58 -3z m530 -12 c14 -19 16 -32 3 -32 -5 0 -11 9 -14 20 -6 23 -51 28 -63
8 -27 -44 0 -93 48 -86 15 3 28 1 28 -4 0 -13 -77 -9 -88 5 -6 6 -13 24 -17
39 -5 21 -1 33 19 53 28 28 60 27 84 -3z m102 19 c0 -5 -9 -13 -20 -16 -16 -5
-20 -15 -20 -56 0 -27 -4 -49 -10 -49 -6 0 -10 27 -10 61 0 37 4 58 10 54 5
-3 18 -1 27 4 22 13 23 13 23 2z m300 -1 c11 -7 8 -10 -15 -10 -38 0 -55 -16
-55 -51 0 -34 23 -53 55 -47 14 3 25 1 25 -4 0 -5 -17 -8 -37 -6 -29 2 -41 9
-51 30 -16 33 -1 75 30 88 30 11 30 11 48 0z m128 -6 c12 -8 22 -22 22 -30 0
-21 -17 -17 -23 7 -9 33 -58 22 -69 -16 -10 -39 15 -68 54 -63 16 3 28 1 28
-4 0 -14 -68 -8 -84 8 -24 24 -20 80 6 98 12 9 27 16 33 16 6 0 21 -7 33 -16z
m265 4 c21 -15 37 -118 18 -118 -6 0 -11 17 -11 43 0 55 -11 69 -46 65 -27 -3
-29 -6 -32 -55 -4 -73 -22 -67 -22 8 0 47 3 60 13 56 8 -3 20 -1 28 4 19 12
32 11 52 -3z m314 -2 c1 -1 6 -27 11 -57 l8 -56 -50 1 c-42 1 -51 4 -54 20 -5
24 23 46 56 46 17 0 23 5 20 18 -2 12 -13 17 -36 17 -34 0 -43 11 -14 18 14 4
51 -1 59 -7z m119 2 c5 -7 2 -9 -8 -5 -9 3 -24 0 -34 -8 -17 -12 -16 -15 19
-35 28 -17 37 -28 35 -44 -2 -16 -11 -22 -40 -24 -21 -2 -38 1 -38 6 0 5 14 7
30 4 25 -4 30 -1 30 16 0 13 -10 24 -30 31 -20 6 -30 17 -30 30 0 32 51 54 66
29z m204 4 c0 -5 -11 -14 -24 -20 -20 -9 -26 -20 -29 -59 -3 -44 -4 -42 -5 15
-1 40 2 61 8 57 5 -3 18 -1 27 4 22 13 23 13 23 3z m250 -2 c11 -7 8 -10 -15
-10 -38 0 -55 -16 -55 -51 0 -32 15 -46 55 -52 30 -4 30 -4 -4 -6 -42 -1 -71
23 -71 59 0 51 51 85 90 60z m340 1 c0 -5 -9 -13 -20 -16 -16 -5 -20 -15 -20
-56 0 -27 -4 -49 -10 -49 -6 0 -10 27 -10 61 0 37 4 58 10 54 5 -3 18 -1 27 4
22 13 23 13 23 2z m118 -19 c14 -19 16 -32 3 -32 -5 0 -11 9 -14 20 -3 13 -14
20 -30 20 -28 0 -39 -12 -43 -45 -3 -33 10 -47 52 -55 l39 -8 -42 -1 c-33 -1
-45 4 -57 21 -22 32 -20 55 9 84 27 27 59 26 83 -4z m360 0 c17 -22 15 -67 -4
-86 -8 -9 -28 -16 -44 -16 -36 0 -60 23 -60 59 0 62 70 91 108 43z m296 12
c10 -9 16 -33 16 -59 0 -26 5 -45 13 -48 6 -2 -13 -4 -43 -3 -44 1 -55 4 -58
19 -5 25 16 47 44 47 17 0 24 6 24 20 0 16 -7 20 -32 21 -28 0 -30 2 -13 9 28
12 32 12 49 -6z m-2644 -39 c7 -25 16 -48 20 -50 5 -3 16 18 26 45 10 28 22
50 27 50 5 0 7 -4 5 -8 -1 -4 -12 -31 -22 -60 -11 -29 -25 -52 -32 -52 -6 0
-21 25 -33 56 -24 64 -24 64 -12 64 4 0 14 -20 21 -45z m130 -15 c0 -33 -4
-60 -10 -60 -6 0 -10 27 -10 60 0 33 4 60 10 60 6 0 10 -27 10 -60z m377 -32
c-2 -18 -4 -4 -4 32 0 36 2 50 4 33 2 -18 2 -48 0 -65z m324 76 c-14 -10 -21
-28 -24 -62 -3 -44 -4 -43 -5 13 -2 58 -1 60 24 61 25 2 25 2 5 -12z m489 -26
c0 -54 11 -71 41 -66 21 3 25 10 30 58 l6 55 1 -61 2 -60 -39 -2 c-31 -2 -42
2 -50 17 -14 25 -14 101 -1 101 6 0 10 -19 10 -42z m360 0 c0 -50 7 -64 35
-71 15 -3 13 -5 -8 -6 -21 -1 -30 5 -37 25 -13 33 -13 94 0 94 6 0 10 -19 10
-42z m82 -18 c-2 -33 -7 -58 -10 -56 -9 5 -2 116 6 116 4 0 5 -27 4 -60z m669
44 c-14 -10 -21 -28 -24 -62 -3 -44 -4 -43 -5 13 -2 58 -1 60 24 61 25 2 25 2
5 -12z"/>
<path d="M1302 4300 l-194 -188 23 -32 c17 -22 24 -46 25 -83 l2 -52 163 -47
163 -47 38 34 c21 19 49 37 63 41 l25 6 0 254 c0 208 -2 254 -14 254 -7 0 -30
11 -50 25 -20 14 -40 25 -44 24 -4 0 -94 -85 -200 -189z"/>
<path d="M1731 4476 c-7 -8 -28 -21 -47 -28 l-34 -12 0 -252 0 -252 24 -6 c57
-14 116 -90 116 -149 0 -21 14 -27 168 -76 l168 -53 39 23 c22 12 42 24 43 25
4 2 -428 746 -451 778 -12 16 -14 16 -26 2z"/>
<path d="M1120 3890 c0 -5 -18 -20 -40 -32 -22 -13 -40 -26 -40 -29 0 -3 70
-154 156 -335 86 -181 169 -357 184 -390 l28 -62 34 11 34 11 63 274 c64 279
65 291 25 292 -16 0 -72 62 -83 93 -6 16 -11 41 -11 57 0 31 -1 31 -227 94
-100 28 -123 31 -123 16z"/>
<path d="M1742 3670 c-18 -21 -46 -42 -62 -45 -34 -8 -28 13 -100 -305 -28
-124 -53 -232 -55 -240 -4 -11 9 -23 41 -38 l46 -23 42 35 c22 19 133 117 246
219 153 137 204 189 201 203 -2 10 -4 45 -4 77 l0 57 -157 50 c-87 28 -159 50
-161 49 -2 0 -19 -18 -37 -39z"/>
<path d="M3149 4064 l-67 -204 134 0 c74 0 134 4 134 8 0 9 -128 394 -132 397
-2 1 -33 -89 -69 -201z"/>
<path d="M4450 4130 l0 -162 133 4 c109 3 138 7 166 23 56 33 76 68 76 134 0
70 -17 104 -64 134 -32 19 -52 22 -173 25 l-138 4 0 -162z"/>
<path d="M5969 4065 l-66 -205 133 0 c74 0 134 3 134 6 0 7 -131 404 -133 404
-1 0 -32 -92 -68 -205z"/>
<path d="M6570 4130 l0 -160 108 0 c175 0 243 31 263 119 19 86 -23 167 -100
190 -21 6 -91 11 -155 11 l-116 0 0 -160z"/>
<path d="M7270 4130 l0 -162 133 4 c110 3 139 8 173 26 98 50 100 211 4 267
-30 17 -56 21 -172 23 l-138 4 0 -162z"/>
<path d="M8680 4130 l0 -162 133 4 c109 3 138 7 166 23 54 32 75 67 75 128 1
69 -18 112 -63 139 -32 20 -52 23 -173 26 l-138 4 0 -162z"/>
<path d="M5940 3215 c0 -43 1 -45 28 -45 15 0 33 5 40 12 28 28 1 78 -44 78
-22 0 -24 -4 -24 -45z"/>
<path d="M4717 3143 c-4 -3 -7 -15 -7 -25 0 -30 54 -21 58 10 3 17 -1 22 -21
22 -13 0 -27 -3 -30 -7z"/>
<path d="M6080 3181 c-15 -28 -12 -46 8 -64 26 -24 49 -21 67 7 24 35 5 76
-34 76 -20 0 -34 -7 -41 -19z"/>
<path d="M6404 3135 c-8 -19 3 -35 25 -35 20 0 41 19 41 37 0 18 -59 17 -66
-2z"/>
</g>
</svg>
