<?xml version="1.0" standalone="no"?>
<!DOCTYPE svg PUBLIC "-//W3C//DTD SVG 20010904//EN"
 "http://www.w3.org/TR/2001/REC-SVG-20010904/DTD/svg10.dtd">
<svg version="1.0" xmlns="http://www.w3.org/2000/svg"
 width="1000.000000pt" height="750.000000pt" viewBox="0 0 1000.000000 750.000000"
 preserveAspectRatio="xMidYMid meet">

<g transform="translate(0.000000,750.000000) scale(0.100000,-0.100000)"
fill="#000000" stroke="none">
<path d="M8030 4715 c-404 -65 -735 -395 -800 -797 -16 -98 -8 -321 14 -402
106 -385 413 -664 795 -721 121 -19 181 -19 301 0 311 46 581 245 721 530 78
159 93 229 93 430 0 201 -15 271 -93 430 -140 285 -410 484 -721 530 -114 18
-197 18 -310 0z m371 -94 c268 -68 489 -251 600 -496 58 -130 74 -205 74 -370
0 -125 -4 -163 -23 -228 -94 -328 -337 -562 -668 -644 -93 -22 -295 -22 -388
0 -278 69 -499 248 -615 499 -63 135 -76 201 -76 373 0 172 13 238 76 373 126
274 381 464 684 512 85 13 247 4 336 -19z"/>
<path d="M7752 3834 c-112 -199 -142 -261 -138 -280 14 -55 172 -111 378 -133
311 -34 671 19 756 112 13 14 22 32 20 40 -5 22 -282 516 -290 517 -3 0 -32
-45 -64 -100 l-58 -100 -60 102 c-66 113 -59 112 -110 25 l-22 -38 -28 50
c-15 28 -31 53 -36 56 -5 3 -29 -28 -52 -70 -24 -41 -46 -75 -50 -75 -4 0 -25
34 -48 75 -23 41 -44 75 -48 75 -4 0 -72 -115 -150 -256z"/>
<path d="M5655 4395 c-5 -2 -23 -6 -38 -9 -43 -10 -67 -58 -67 -138 0 -66 -1
-68 -25 -68 -24 0 -25 -3 -25 -55 0 -52 1 -55 25 -55 l25 0 0 -150 0 -150 65
0 65 0 0 150 0 150 40 0 40 0 0 55 0 55 -41 0 -40 0 3 48 c3 47 3 47 41 50
l37 3 0 53 0 53 -37 7 c-40 6 -52 6 -68 1z"/>
<path d="M5931 4390 c-60 -14 -75 -40 -79 -130 -4 -77 -5 -80 -28 -80 -22 0
-24 -4 -24 -55 0 -52 1 -55 25 -55 l25 0 0 -150 0 -150 65 0 65 0 0 150 0 150
40 0 40 0 0 55 0 55 -41 0 -40 0 3 48 c3 47 3 47 41 50 l37 3 0 49 c0 27 -3
51 -7 53 -18 11 -91 15 -122 7z"/>
<path d="M3830 4305 l0 -55 66 0 65 0 -3 53 -3 52 -62 3 -63 3 0 -56z"/>
<path d="M4670 4315 c-63 -20 -122 -74 -151 -137 -35 -79 -34 -202 3 -280 45
-97 123 -139 259 -139 65 0 162 22 174 40 4 7 -21 86 -32 100 -1 2 -23 -4 -49
-14 -65 -25 -154 -17 -190 16 -40 37 -57 79 -58 139 0 66 24 122 68 153 34 24
116 30 189 13 l37 -8 0 51 c0 50 -1 53 -35 67 -43 18 -155 17 -215 -1z"/>
<path d="M860 4045 l0 -275 65 0 65 0 2 178 3 177 60 -88 c57 -83 62 -87 94
-85 31 3 40 11 90 85 31 45 59 82 64 83 4 0 7 -79 7 -175 l0 -175 65 0 65 0 0
275 0 275 -77 0 -78 0 -65 -100 c-36 -54 -67 -99 -70 -99 -3 -1 -34 44 -70 99
l-65 100 -77 0 -78 0 0 -275z"/>
<path d="M3087 4304 c-4 -4 -7 -36 -7 -70 0 -61 -1 -63 -27 -66 -27 -3 -28 -5
-28 -58 0 -52 1 -55 27 -58 l26 -3 4 -115 3 -116 33 -29 c31 -28 38 -30 100
-27 l67 3 3 52 3 52 -38 3 -38 3 -3 88 -3 87 46 0 45 0 0 60 0 60 -45 0 -44 0
-3 68 -3 67 -55 3 c-31 2 -59 0 -63 -4z"/>
<path d="M1644 4175 c-87 -38 -137 -144 -116 -244 16 -74 51 -124 107 -151 38
-18 59 -21 124 -19 88 4 130 26 172 87 34 50 40 171 11 228 -41 79 -104 114
-204 113 -35 0 -77 -7 -94 -14z m165 -121 c29 -37 29 -121 1 -157 -36 -45
-102 -44 -137 2 -7 9 -13 41 -13 72 0 77 24 109 85 109 35 0 48 -5 64 -26z"/>
<path d="M2717 4171 c-32 -16 -39 -17 -44 -5 -4 10 -22 14 -64 14 l-59 0 0
-205 0 -205 60 0 60 0 0 135 c0 131 1 135 24 150 42 28 91 30 115 6 19 -19 21
-32 21 -156 l0 -135 66 0 66 0 -4 153 c-6 185 -16 218 -80 247 -55 25 -114 25
-161 1z"/>
<path d="M4226 4173 c-29 -12 -41 -13 -44 -5 -2 7 -26 12 -63 12 l-59 0 0
-205 0 -205 60 0 60 0 0 135 c0 131 1 135 24 150 42 28 91 30 115 6 19 -19 21
-32 21 -156 l0 -135 66 0 66 0 -4 153 c-5 185 -16 218 -80 247 -52 24 -109 25
-162 3z"/>
<path d="M5134 4175 c-115 -51 -157 -213 -84 -328 38 -60 95 -87 183 -87 79 0
121 15 162 59 39 41 53 82 54 156 1 136 -81 216 -221 214 -35 0 -77 -7 -94
-14z m165 -121 c29 -36 29 -121 1 -157 -25 -31 -65 -42 -101 -27 -53 22 -70
131 -28 184 16 21 29 26 64 26 35 0 48 -5 64 -26z"/>
<path d="M6208 4170 c-133 -71 -143 -294 -16 -377 36 -25 53 -28 132 -31 118
-4 170 14 160 56 -18 72 -19 73 -65 57 -66 -24 -114 -19 -150 13 -50 45 -34
52 107 52 l124 0 0 43 c0 91 -41 166 -107 193 -48 20 -141 17 -185 -6z m128
-88 c6 -4 16 -17 23 -29 12 -23 11 -23 -54 -23 -69 0 -78 7 -45 40 20 20 56
26 76 12z"/>
<path d="M6665 4176 c-72 -32 -114 -106 -115 -199 0 -94 37 -159 112 -198 48
-24 179 -26 237 -3 l40 16 -14 45 c-8 25 -16 47 -18 49 -2 2 -20 -3 -40 -11
-82 -34 -177 -4 -177 56 0 5 58 9 130 9 149 0 140 -7 120 99 -19 100 -82 151
-187 151 -32 -1 -71 -7 -88 -14z m123 -102 c41 -29 28 -44 -38 -44 -46 0 -60
3 -60 14 0 17 38 46 60 46 9 0 26 -7 38 -16z"/>
<path d="M2040 4028 c0 -173 9 -205 69 -245 43 -29 121 -31 174 -4 29 15 37
16 37 5 0 -11 16 -14 65 -14 l65 0 0 205 0 205 -65 0 -65 0 0 -135 0 -135 -32
-20 c-39 -23 -77 -26 -104 -6 -17 13 -19 30 -22 155 l-4 141 -59 0 -59 0 0
-152z"/>
<path d="M3440 4126 l0 -56 61 0 c65 0 99 -12 99 -36 0 -12 -7 -13 -37 -7 -91
19 -170 -4 -198 -57 -18 -35 -19 -106 -2 -140 31 -62 134 -90 202 -54 19 10
31 11 33 5 2 -6 32 -11 69 -11 l65 0 -4 158 c-2 130 -6 163 -21 185 -32 49
-62 61 -169 65 l-98 4 0 -56z m148 -192 c6 -2 12 -14 12 -27 0 -29 -42 -50
-86 -45 -25 2 -29 8 -32 36 -3 26 1 34 20 41 21 8 49 7 86 -5z"/>
<path d="M3830 3975 l0 -205 65 0 65 0 0 205 0 205 -65 0 -65 0 0 -205z"/>
<path d="M4340 3337 c0 -198 6 -217 66 -217 28 0 35 4 32 18 -2 9 -13 18 -26
20 -22 3 -22 5 -22 178 l0 174 -25 0 -25 0 0 -173z"/>
<path d="M5420 3435 c0 -68 -9 -91 -25 -65 -9 15 -72 12 -104 -4 -35 -19 -51
-55 -51 -119 0 -99 66 -156 144 -123 20 8 36 11 36 5 0 -5 11 -9 25 -9 l25 0
0 195 0 195 -25 0 c-24 0 -25 -2 -25 -75z m-16 -108 c14 -10 16 -25 14 -82 -3
-65 -5 -71 -30 -83 -37 -17 -76 -6 -93 29 -35 68 -3 149 59 149 18 0 40 -6 50
-13z"/>
<path d="M4660 3454 c0 -31 3 -35 23 -32 12 2 21 6 20 11 -2 4 -3 18 -3 32 0
18 -5 25 -20 25 -16 0 -20 -7 -20 -36z"/>
<path d="M4099 3443 c-6 -15 -32 -86 -59 -158 -27 -71 -52 -138 -55 -147 -6
-14 -2 -18 17 -18 19 0 27 9 41 50 l18 50 73 0 74 0 18 -50 c14 -40 22 -50 41
-50 13 0 23 1 23 3 0 1 -29 79 -64 172 -59 157 -66 170 -90 173 -21 3 -28 -2
-37 -25z m66 -106 c14 -37 25 -70 25 -72 0 -3 -25 -5 -55 -5 -30 0 -55 2 -55
4 0 11 53 146 56 143 2 -2 15 -33 29 -70z"/>
<path d="M5930 3296 l0 -176 75 0 c83 0 137 17 154 48 19 36 13 81 -15 109
-24 24 -25 26 -7 45 25 28 22 94 -6 121 -18 19 -36 23 -111 25 l-90 4 0 -176z
m168 122 c16 -16 15 -60 -1 -82 -10 -13 -28 -18 -68 -19 l-54 -2 -3 58 -3 57
59 0 c32 0 63 -5 70 -12z m6 -157 c9 -8 16 -28 16 -47 0 -42 -21 -54 -94 -54
l-56 0 0 61 0 61 59 -4 c33 -2 66 -10 75 -17z"/>
<path d="M4500 3415 c0 -33 -4 -45 -15 -45 -8 0 -15 -9 -15 -20 0 -11 7 -20
15 -20 12 0 15 -17 15 -93 0 -106 6 -117 62 -117 31 0 38 4 38 19 0 14 -8 21
-27 23 -28 3 -28 4 -31 86 l-3 82 31 0 c23 0 30 4 30 20 0 16 -7 20 -30 20
-29 0 -30 2 -30 45 0 38 -3 45 -20 45 -17 0 -20 -7 -20 -45z"/>
<path d="M4800 3419 c0 -32 -4 -42 -20 -46 -11 -3 -20 -12 -20 -20 0 -8 9 -17
20 -20 18 -5 20 -14 20 -97 0 -58 4 -96 12 -104 7 -7 29 -12 51 -12 31 0 38 3
35 18 -2 10 -14 18 -31 20 l-27 3 0 85 0 84 30 0 c23 0 30 4 30 20 0 16 -7 20
-30 20 -29 0 -30 2 -30 45 0 38 -3 45 -20 45 -17 0 -20 -7 -20 -41z"/>
<path d="M4667 3374 c-4 -4 -7 -63 -7 -131 0 -120 1 -124 21 -121 19 3 21 9
20 128 0 98 -3 126 -13 128 -8 1 -17 0 -21 -4z"/>
<path d="M4960 3276 c0 -89 3 -107 21 -130 16 -20 29 -26 60 -26 22 0 50 5 62
11 16 9 22 9 25 0 2 -6 12 -11 23 -11 19 0 19 7 17 127 -3 112 -5 128 -20 131
-16 3 -18 -6 -18 -92 0 -87 -2 -96 -22 -110 -27 -19 -79 -21 -96 -4 -8 8 -12
47 -12 110 0 91 -1 98 -20 98 -19 0 -20 -7 -20 -104z"/>
<path d="M5592 3367 c-39 -22 -57 -58 -57 -117 0 -103 68 -155 170 -129 47 12
50 15 37 37 -7 10 -15 10 -38 2 -60 -23 -124 11 -124 67 0 22 3 23 89 23 l88
0 -7 42 c-14 75 -91 112 -158 75z m102 -43 c33 -32 20 -44 -49 -44 -36 0 -65
3 -65 8 0 4 7 18 16 30 18 26 74 30 98 6z"/>
<path d="M6268 3351 c-31 -28 -33 -33 -33 -99 0 -61 3 -74 24 -96 35 -37 86
-51 140 -36 31 8 41 15 39 28 -3 9 -9 16 -15 15 -76 -16 -90 -15 -116 8 -15
13 -28 35 -29 49 -3 25 -2 25 85 28 79 3 87 5 87 23 0 32 -27 87 -48 98 -40
21 -99 13 -134 -18z m120 -23 c7 -7 12 -20 12 -30 0 -15 -9 -18 -60 -18 -64 0
-76 12 -44 44 18 19 75 21 92 4z"/>
<path d="M6550 3361 c0 -16 6 -21 26 -21 35 0 64 -17 64 -38 0 -15 -9 -18 -54
-18 -71 1 -96 -20 -96 -81 0 -55 26 -83 76 -83 19 0 44 5 55 10 13 8 19 7 19
0 0 -6 10 -10 23 -8 18 2 23 10 25 48 2 25 1 73 -3 108 -8 71 -22 86 -92 98
-39 6 -43 5 -43 -15z m88 -147 c3 -34 -9 -49 -49 -59 -31 -8 -59 15 -59 49 0
33 20 47 65 44 37 -3 40 -6 43 -34z"/>
<path d="M6760 3250 c0 -123 1 -130 20 -130 19 0 20 7 20 94 0 87 2 96 22 110
33 23 74 20 92 -6 12 -16 16 -47 16 -110 0 -81 2 -88 20 -88 19 0 20 7 20 95
0 100 -13 147 -45 159 -27 10 -68 7 -97 -8 -24 -13 -28 -13 -28 0 0 8 -9 14
-20 14 -19 0 -20 -7 -20 -130z"/>
</g>
</svg>
