<?xml version="1.0" standalone="no"?>
<!DOCTYPE svg PUBLIC "-//W3C//DTD SVG 20010904//EN"
 "http://www.w3.org/TR/2001/REC-SVG-20010904/DTD/svg10.dtd">
<svg version="1.0" xmlns="http://www.w3.org/2000/svg"
 width="1000.000000pt" height="750.000000pt" viewBox="0 0 1000.000000 750.000000"
 preserveAspectRatio="xMidYMid meet">
<metadata>
Created by potrace 1.16, written by Peter Selinger 2001-2019
</metadata>
<g transform="translate(0.000000,750.000000) scale(0.100000,-0.100000)"
fill="#000000" stroke="none">
<path d="M5910 3180 c0 -93 1 -100 20 -100 16 0 20 7 20 35 0 33 2 35 34 35
59 0 88 68 46 110 -15 15 -33 20 -70 20 l-50 0 0 -100z"/>
<path d="M4656 3221 c-3 -5 -15 -7 -26 -4 -19 5 -20 0 -20 -66 0 -56 3 -71 15
-71 11 0 15 12 15 51 0 42 3 52 20 56 11 3 20 9 20 12 0 4 7 8 15 9 39 5 75 5
80 1 2 -3 8 -31 13 -62 8 -49 7 -57 -5 -53 -8 4 -16 6 -17 6 -2 0 -2 10 -1 23
1 12 0 14 -2 5 -5 -22 -43 -24 -43 -3 0 8 6 15 13 15 8 0 7 4 -3 10 -12 8 -9
10 13 10 37 0 34 35 -3 36 -22 1 -22 0 -2 -3 31 -6 27 -17 -10 -28 -40 -13
-57 -38 -42 -62 13 -21 124 -30 124 -10 0 8 3 8 12 -1 16 -16 70 -16 86 0 22
22 13 48 -23 69 -19 12 -32 26 -28 32 3 6 1 7 -6 3 -15 -10 -6 -23 30 -42 22
-11 29 -21 27 -37 -2 -17 -11 -23 -40 -25 -21 -2 -38 1 -38 6 0 5 14 7 30 4
17 -2 30 0 30 5 0 4 -20 8 -45 7 -43 -2 -45 0 -45 27 0 67 -42 105 -88 80 -14
-7 -23 -8 -27 -1 -8 12 -22 13 -29 1z"/>
<path d="M5079 3219 c-6 -3 -20 -4 -30 -2 -17 5 -19 -1 -19 -66 0 -54 3 -71
14 -71 10 0 15 16 18 55 4 64 -9 60 -15 -5 -3 -40 -4 -38 -5 15 -2 52 1 61 16
61 9 1 24 3 32 5 11 3 16 -8 20 -47 7 -70 22 -86 79 -82 l46 3 3 68 c3 61 1
67 -17 67 -17 0 -20 -8 -23 -52 -3 -45 -6 -53 -23 -53 -17 0 -20 8 -23 51 -3
49 -5 52 -32 56 -16 3 -35 1 -41 -3z"/>
<path d="M6075 3205 c-48 -47 -20 -125 45 -125 65 0 93 78 45 125 -31 32 -59
32 -90 0z"/>
</g>
</svg>
